<svg width="30" height="30" viewBox="0 0 30 30" fill="none" xmlns="http://www.w3.org/2000/svg">
<rect width="30" height="30" rx="15" fill="#007DD4" fill-opacity="0.7"/>
<path fill-rule="evenodd" clip-rule="evenodd" d="M13.5952 21.1905C9.4005 21.1905 6 17.79 6 13.5952C6 9.4005 9.4005 6 13.5952 6C17.79 6 21.1905 9.4005 21.1905 13.5952C21.1905 15.3504 20.5951 16.9665 19.5953 18.2527L24.71 23.3674L23.3674 24.71L18.2527 19.5953C16.9665 20.5951 15.3504 21.1905 13.5952 21.1905ZM19.2916 13.5952C19.2916 16.7413 16.7413 19.2917 13.5952 19.2917C10.4492 19.2917 7.8988 16.7413 7.8988 13.5952C7.8988 10.4492 10.4492 7.89881 13.5952 7.89881C16.7413 7.89881 19.2916 10.4492 19.2916 13.5952Z" fill="white"/>
</svg>
