<svg width="26" height="26" viewBox="0 0 26 26" fill="none" xmlns="http://www.w3.org/2000/svg">
<rect width="26" height="26" rx="13" fill="#007DD4" fill-opacity="0.7"/>
<path fill-rule="evenodd" clip-rule="evenodd" d="M7.8 9.75H9.1V6.5H16.9V9.75H18.2C18.918 9.75 19.5 10.332 19.5 11.05V16.25C19.5 16.968 18.918 17.55 18.2 17.55H16.9V19.5H9.10001V17.55H7.8C7.08203 17.55 6.5 16.968 6.5 16.25V11.05C6.5 10.332 7.08203 9.75 7.8 9.75ZM15.6 9.75H10.4V7.8H15.6V9.75ZM18.2 16.25H16.9V14.95H9.10001V16.25H7.8V11.05H18.2V16.25ZM15.6 16.25H10.4V18.2H15.6V16.25ZM17.55 12.35C17.55 11.991 17.259 11.7 16.9 11.7C16.541 11.7 16.25 11.991 16.25 12.35C16.25 12.709 16.541 13 16.9 13C17.259 13 17.55 12.709 17.55 12.35Z" fill="white"/>
</svg>
