<svg width="26" height="26" viewBox="0 0 26 26" fill="none" xmlns="http://www.w3.org/2000/svg">
<rect width="26" height="26" rx="13" fill="#007DD4" fill-opacity="0.7"/>
<path fill-rule="evenodd" clip-rule="evenodd" d="M16.9 15.6V16.9C18.6949 16.9 20.15 15.4449 20.15 13.65C20.15 12.0152 18.943 10.6624 17.3715 10.434C16.8188 8.51865 15.0531 7.14999 13 7.14999C11.4747 7.14999 10.0809 7.90729 9.24294 9.13267C7.32358 9.38174 5.85001 11.0232 5.85001 13C5.85001 14.9324 7.25549 16.5366 9.10001 16.8461V15.5181C7.97861 15.2295 7.15001 14.2115 7.15001 13C7.15001 11.6028 8.25458 10.4566 9.64578 10.402L10.0039 10.388L10.1832 10.0776C10.7603 9.07817 11.8251 8.44999 13 8.44999C14.5932 8.44999 15.9447 9.60457 16.2051 11.158L16.2979 11.7118L16.8594 11.7004C16.8695 11.7002 16.8746 11.7001 16.8796 11.7001C16.8847 11.7 16.8898 11.7 16.9 11.7C17.977 11.7 18.85 12.573 18.85 13.65C18.85 14.7269 17.977 15.6 16.9 15.6ZM12.35 12.35V16.4146L10.8596 14.956L9.94038 15.8557L13 18.85L16.0596 15.8557L15.1404 14.956L13.65 16.4146V12.35H12.35Z" fill="white"/>
</svg>
