<svg width="24" height="26" viewBox="0 0 24 26" fill="none" xmlns="http://www.w3.org/2000/svg">
<rect width="23.7739" height="26" rx="11.8869" fill="#D40000" fill-opacity="0.7"/>
<path fill-rule="evenodd" clip-rule="evenodd" d="M10.1615 7H13.7285C14.3852 7 14.9175 7.52912 14.9175 8.18182V8.77273H16.701C17.3577 8.77273 17.89 9.30185 17.89 9.95455V11.1364C17.89 11.7891 17.3577 12.3182 16.701 12.3182H16.6534L16.1065 18.8182C16.1065 19.4709 15.5742 20 14.9175 20H8.9725C8.31583 20 7.7835 19.4709 7.78555 18.8673L7.23648 12.3182H7.189C6.53233 12.3182 6 11.7891 6 11.1364V9.95455C6 9.30185 6.53233 8.77273 7.189 8.77273H8.9725V8.18182C8.9725 7.52912 9.50483 7 10.1615 7ZM8.9725 18.8182L8.42942 12.3182H15.4604L14.9196 18.7691L14.9175 18.8182H8.9725ZM7.189 11.1364V9.95457H16.701V11.1364H7.189ZM13.7285 8.18182V8.77273H10.1615V8.18182H13.7285Z" fill="white"/>
</svg>
